# MagicaVoxel @ Ephtracy

# group
o 

# material
mtllib mosin.mtl
usemtl palette

# normals
vn -1 0 0
vn 1 0 0
vn 0 0 1
vn 0 0 -1
vn 0 -1 0
vn 0 1 0

# texcoords
vt 0.00195313 0.5
vt 0.00585938 0.5
vt 0.00976563 0.5
vt 0.0136719 0.5
vt 0.0175781 0.5
vt 0.0214844 0.5

# verts
v -0.2 0.3 -0.4
v -0.2 0.3 -0.5
v -0.2 0.4 -0.4
v -0.2 0.4 -0.5
v -0.1 -0.3 -1.8
v -0.1 -0.3 -2.3
v -0.1 -0.2 -1.5
v -0.1 -0.2 -1.6
v -0.1 -0.2 -1.8
v -0.1 -0.2 -2.3
v -0.1 -0.2 -2.4
v -0.1 -0.1 -1.3
v -0.1 -0.1 -1.5
v -0.1 -0.1 -1.6
v -0.1 -0.1 -1.8
v -0.1 0 -1.1
v -0.1 0 -1.3
v -0.1 0 -1.5
v -0.1 0 -1.7
v -0.1 0 -2.3
v -0.1 0 -2.4
v -0.1 0.1 0.4
v -0.1 0.1 -1.1
v -0.1 0.1 -1.2
v -0.1 0.1 -1.5
v -0.1 0.1 -1.7
v -0.1 0.1 -2.3
v -0.1 0.2 0.7
v -0.1 0.2 0.6
v -0.1 0.2 0.5
v -0.1 0.2 0.4
v -0.1 0.2 -1
v -0.1 0.2 -1.2
v -0.1 0.3 0.7
v -0.1 0.3 0.6
v -0.1 0.3 0.5
v -0.1 0.3 -0.4
v -0.1 0.3 -0.5
v -0.1 0.3 -1
v 0 -0.4 -2.1
v 0 -0.4 -2.4
v 0 -0.3 -1.7
v 0 -0.3 -1.8
v 0 -0.3 -2.1
v 0 -0.3 -2.3
v 0 -0.3 -2.4
v 0 -0.3 -2.5
v 0 -0.2 -1.7
v 0 -0.2 -1.8
v 0 -0.2 -2.3
v 0 -0.2 -2.4
v 0 -0.1 -0.4
v 0 -0.1 -0.9
v 0 0 -0.2
v 0 0 -0.4
v 0 0 -0.7
v 0 0 -0.9
v 0 0 -1
v 0 0 -1.1
v 0 0 -1.5
v 0 0 -1.7
v 0 0 -2.3
v 0 0 -2.4
v 0 0 -2.5
v 0 0.1 0.6
v 0 0.1 0.5
v 0 0.1 0.4
v 0 0.1 -0.2
v 0 0.1 -0.7
v 0 0.1 -0.9
v 0 0.1 -1
v 0 0.1 -1.1
v 0 0.1 -1.2
v 0 0.1 -1.4
v 0 0.1 -1.5
v 0 0.1 -1.7
v 0 0.1 -2.3
v 0 0.1 -2.4
v 0 0.2 1.9
v 0 0.2 1.8
v 0 0.2 1.4
v 0 0.2 1.2
v 0 0.2 0.7
v 0 0.2 0.6
v 0 0.2 0.5
v 0 0.2 0.4
v 0 0.2 -1
v 0 0.2 -1.2
v 0 0.2 -1.4
v 0 0.3 2.4
v 0 0.3 1.9
v 0 0.3 1.4
v 0 0.3 1.2
v 0 0.3 0.7
v 0 0.3 0.6
v 0 0.3 0.5
v 0 0.3 0.4
v 0 0.3 0.3
v 0 0.3 -0.2
v 0 0.3 -0.4
v 0 0.3 -0.5
v 0 0.3 -0.7
v 0 0.3 -1
v 0 0.3 -1.1
v 0 0.3 -1.2
v 0 0.4 2.4
v 0 0.4 2.3
v 0 0.4 2.2
v 0 0.4 1.9
v 0 0.4 1.8
v 0 0.4 0.6
v 0 0.4 0.5
v 0 0.4 0.4
v 0 0.4 0.3
v 0 0.4 -0.2
v 0 0.4 -0.4
v 0 0.4 -0.5
v 0 0.4 -0.7
v 0 0.4 -1
v 0 0.4 -1.1
v 0 0.5 2.3
v 0 0.5 2.2
v 0.1 -0.4 -2.1
v 0.1 -0.4 -2.4
v 0.1 -0.3 -1.7
v 0.1 -0.3 -1.8
v 0.1 -0.3 -2.1
v 0.1 -0.3 -2.3
v 0.1 -0.3 -2.4
v 0.1 -0.3 -2.5
v 0.1 -0.2 -1.7
v 0.1 -0.2 -1.8
v 0.1 -0.2 -2.3
v 0.1 -0.2 -2.4
v 0.1 -0.1 -0.4
v 0.1 -0.1 -0.9
v 0.1 0 -0.2
v 0.1 0 -0.4
v 0.1 0 -0.7
v 0.1 0 -0.9
v 0.1 0 -1
v 0.1 0 -1.1
v 0.1 0 -1.5
v 0.1 0 -1.7
v 0.1 0 -2.3
v 0.1 0 -2.4
v 0.1 0 -2.5
v 0.1 0.1 0.6
v 0.1 0.1 0.5
v 0.1 0.1 0.2
v 0.1 0.1 -0.2
v 0.1 0.1 -0.7
v 0.1 0.1 -0.9
v 0.1 0.1 -1
v 0.1 0.1 -1.1
v 0.1 0.1 -1.2
v 0.1 0.1 -1.4
v 0.1 0.1 -1.5
v 0.1 0.1 -1.7
v 0.1 0.1 -2.3
v 0.1 0.1 -2.4
v 0.1 0.2 1.9
v 0.1 0.2 1.8
v 0.1 0.2 1.4
v 0.1 0.2 1.2
v 0.1 0.2 0.8
v 0.1 0.2 0.6
v 0.1 0.2 0.5
v 0.1 0.2 0.2
v 0.1 0.2 -1
v 0.1 0.2 -1.2
v 0.1 0.2 -1.4
v 0.1 0.3 2.4
v 0.1 0.3 1.9
v 0.1 0.3 1.4
v 0.1 0.3 1.2
v 0.1 0.3 0.8
v 0.1 0.3 0.6
v 0.1 0.3 0.5
v 0.1 0.3 0.4
v 0.1 0.3 0.3
v 0.1 0.3 -0.2
v 0.1 0.3 -0.7
v 0.1 0.3 -1
v 0.1 0.3 -1.1
v 0.1 0.3 -1.2
v 0.1 0.4 2.4
v 0.1 0.4 2.3
v 0.1 0.4 2.2
v 0.1 0.4 1.9
v 0.1 0.4 1.8
v 0.1 0.4 0.6
v 0.1 0.4 0.5
v 0.1 0.4 0.4
v 0.1 0.4 0.3
v 0.1 0.4 -0.2
v 0.1 0.4 -0.7
v 0.1 0.4 -1
v 0.1 0.4 -1.1
v 0.1 0.5 2.3
v 0.1 0.5 2.2
v 0.2 -0.3 -1.8
v 0.2 -0.3 -2.3
v 0.2 -0.2 -1.5
v 0.2 -0.2 -1.6
v 0.2 -0.2 -1.8
v 0.2 -0.2 -2.3
v 0.2 -0.2 -2.4
v 0.2 -0.1 -1.3
v 0.2 -0.1 -1.5
v 0.2 -0.1 -1.6
v 0.2 -0.1 -1.8
v 0.2 0 -1.1
v 0.2 0 -1.3
v 0.2 0 -1.5
v 0.2 0 -1.7
v 0.2 0 -2.3
v 0.2 0 -2.4
v 0.2 0.1 0.2
v 0.2 0.1 -1.1
v 0.2 0.1 -1.2
v 0.2 0.1 -1.5
v 0.2 0.1 -1.7
v 0.2 0.1 -2.3
v 0.2 0.2 0.8
v 0.2 0.2 0.6
v 0.2 0.2 0.5
v 0.2 0.2 0.2
v 0.2 0.2 -1
v 0.2 0.2 -1.2
v 0.2 0.3 0.8
v 0.2 0.3 0.6
v 0.2 0.3 0.5
v 0.2 0.3 -1
v 0 0.3 2.4
v 0 0.4 2.4
v 0.1 0.3 2.4
v 0.1 0.4 2.4
v 0 0.4 2.3
v 0 0.5 2.3
v 0.1 0.4 2.3
v 0.1 0.5 2.3
v 0 0.2 1.9
v 0 0.3 1.9
v 0.1 0.2 1.9
v 0.1 0.3 1.9
v 0.1 0.2 0.8
v 0.1 0.3 0.8
v 0.2 0.2 0.8
v 0.2 0.3 0.8
v -0.1 0.2 0.7
v -0.1 0.3 0.7
v 0 0.2 0.7
v 0 0.3 0.7
v 0 0.1 0.6
v 0 0.2 0.6
v 0.1 0.1 0.6
v 0.1 0.2 0.6
v -0.1 0.1 0.4
v -0.1 0.2 0.4
v 0 0.1 0.4
v 0 0.2 0.4
v 0.1 0.1 0.2
v 0.1 0.2 0.2
v 0.2 0.1 0.2
v 0.2 0.2 0.2
v 0 0 -0.2
v 0 0.1 -0.2
v 0.1 0 -0.2
v 0.1 0.1 -0.2
v -0.2 0.3 -0.4
v -0.2 0.4 -0.4
v -0.1 0.3 -0.4
v 0 -0.1 -0.4
v 0 0 -0.4
v 0 0.3 -0.4
v 0 0.4 -0.4
v 0.1 -0.1 -0.4
v 0.1 0 -0.4
v 0 0 -0.9
v 0 0.1 -0.9
v 0.1 0 -0.9
v 0.1 0.1 -0.9
v -0.1 0 -1.1
v -0.1 0.1 -1.1
v 0 0 -1.1
v 0 0.1 -1.1
v 0.1 0 -1.1
v 0.1 0.1 -1.1
v 0.2 0 -1.1
v 0.2 0.1 -1.1
v -0.1 -0.1 -1.3
v -0.1 0 -1.3
v 0.2 -0.1 -1.3
v 0.2 0 -1.3
v -0.1 -0.2 -1.5
v -0.1 -0.1 -1.5
v 0.2 -0.2 -1.5
v 0.2 -0.1 -1.5
v -0.1 0 -1.7
v -0.1 0.1 -1.7
v 0 -0.3 -1.7
v 0 -0.2 -1.7
v 0 0 -1.7
v 0 0.1 -1.7
v 0.1 -0.3 -1.7
v 0.1 -0.2 -1.7
v 0.1 0 -1.7
v 0.1 0.1 -1.7
v 0.2 0 -1.7
v 0.2 0.1 -1.7
v -0.1 -0.3 -1.8
v -0.1 -0.2 -1.8
v 0 -0.3 -1.8
v 0 -0.2 -1.8
v 0.1 -0.3 -1.8
v 0.1 -0.2 -1.8
v 0.2 -0.3 -1.8
v 0.2 -0.2 -1.8
v 0 -0.4 -2.1
v 0 -0.3 -2.1
v 0.1 -0.4 -2.1
v 0.1 -0.3 -2.1
v 0 0.4 2.2
v 0 0.5 2.2
v 0.1 0.4 2.2
v 0.1 0.5 2.2
v -0.2 0.3 -0.5
v -0.2 0.4 -0.5
v -0.1 0.3 -0.5
v 0 0.3 -0.5
v 0 0.4 -0.5
v 0 0 -0.7
v 0 0.1 -0.7
v 0.1 0 -0.7
v 0.1 0.1 -0.7
v 0 -0.1 -0.9
v 0 0 -0.9
v 0.1 -0.1 -0.9
v 0.1 0 -0.9
v -0.1 0.2 -1
v -0.1 0.3 -1
v 0 0.2 -1
v 0 0.3 -1
v 0.1 0.2 -1
v 0.1 0.3 -1
v 0.2 0.2 -1
v 0.2 0.3 -1
v 0 0.3 -1.1
v 0 0.4 -1.1
v 0.1 0.3 -1.1
v 0.1 0.4 -1.1
v -0.1 0.1 -1.2
v -0.1 0.2 -1.2
v 0 0.1 -1.2
v 0 0.2 -1.2
v 0 0.3 -1.2
v 0.1 0.1 -1.2
v 0.1 0.2 -1.2
v 0.1 0.3 -1.2
v 0.2 0.1 -1.2
v 0.2 0.2 -1.2
v 0 0.1 -1.4
v 0 0.2 -1.4
v 0.1 0.1 -1.4
v 0.1 0.2 -1.4
v -0.1 0 -1.5
v -0.1 0.1 -1.5
v 0 0 -1.5
v 0 0.1 -1.5
v 0.1 0 -1.5
v 0.1 0.1 -1.5
v 0.2 0 -1.5
v 0.2 0.1 -1.5
v -0.1 -0.3 -2.3
v -0.1 -0.2 -2.3
v -0.1 0 -2.3
v -0.1 0.1 -2.3
v 0 -0.3 -2.3
v 0 -0.2 -2.3
v 0 0 -2.3
v 0 0.1 -2.3
v 0.1 -0.3 -2.3
v 0.1 -0.2 -2.3
v 0.1 0 -2.3
v 0.1 0.1 -2.3
v 0.2 -0.3 -2.3
v 0.2 -0.2 -2.3
v 0.2 0 -2.3
v 0.2 0.1 -2.3
v -0.1 -0.2 -2.4
v -0.1 0 -2.4
v 0 -0.4 -2.4
v 0 -0.3 -2.4
v 0 -0.2 -2.4
v 0 0 -2.4
v 0 0.1 -2.4
v 0.1 -0.4 -2.4
v 0.1 -0.3 -2.4
v 0.1 -0.2 -2.4
v 0.1 0 -2.4
v 0.1 0.1 -2.4
v 0.2 -0.2 -2.4
v 0.2 0 -2.4
v 0 -0.3 -2.5
v 0 0 -2.5
v 0.1 -0.3 -2.5
v 0.1 0 -2.5
v 0 -0.4 -2.1
v 0.1 -0.4 -2.1
v 0 -0.4 -2.4
v 0.1 -0.4 -2.4
v 0 -0.3 -1.7
v 0.1 -0.3 -1.7
v -0.1 -0.3 -1.8
v 0 -0.3 -1.8
v 0.1 -0.3 -1.8
v 0.2 -0.3 -1.8
v 0 -0.3 -2.1
v 0.1 -0.3 -2.1
v -0.1 -0.3 -2.3
v 0 -0.3 -2.3
v 0.1 -0.3 -2.3
v 0.2 -0.3 -2.3
v 0 -0.3 -2.4
v 0.1 -0.3 -2.4
v 0 -0.3 -2.5
v 0.1 -0.3 -2.5
v -0.1 -0.2 -1.5
v 0.2 -0.2 -1.5
v -0.1 -0.2 -1.6
v 0 -0.2 -1.6
v 0.1 -0.2 -1.6
v 0.2 -0.2 -1.6
v 0 -0.2 -1.7
v 0.1 -0.2 -1.7
v -0.1 -0.2 -1.8
v 0 -0.2 -1.8
v 0.1 -0.2 -1.8
v 0.2 -0.2 -1.8
v -0.1 -0.2 -2.3
v 0 -0.2 -2.3
v 0.1 -0.2 -2.3
v 0.2 -0.2 -2.3
v -0.1 -0.2 -2.4
v 0 -0.2 -2.4
v 0.1 -0.2 -2.4
v 0.2 -0.2 -2.4
v 0 -0.1 -0.4
v 0.1 -0.1 -0.4
v 0 -0.1 -0.9
v 0.1 -0.1 -0.9
v -0.1 -0.1 -1.3
v 0.2 -0.1 -1.3
v -0.1 -0.1 -1.5
v 0.2 -0.1 -1.5
v 0 0 -0.2
v 0.1 0 -0.2
v 0 0 -0.4
v 0.1 0 -0.4
v 0 0 -0.9
v 0.1 0 -0.9
v 0 0 -1
v 0.1 0 -1
v -0.1 0 -1.1
v 0 0 -1.1
v 0.1 0 -1.1
v 0.2 0 -1.1
v -0.1 0 -1.3
v 0.2 0 -1.3
v 0 0.1 0.6
v 0.1 0.1 0.6
v 0 0.1 0.5
v 0.1 0.1 0.5
v -0.1 0.1 0.4
v 0 0.1 0.4
v 0.1 0.1 0.2
v 0.2 0.1 0.2
v 0 0.1 -0.2
v 0.1 0.1 -0.2
v 0 0.1 -0.7
v 0.1 0.1 -0.7
v 0 0.1 -0.9
v 0.1 0.1 -0.9
v 0 0.1 -1
v 0.1 0.1 -1
v -0.1 0.1 -1.1
v 0 0.1 -1.1
v 0.1 0.1 -1.1
v 0.2 0.1 -1.1
v 0 0.2 1.9
v 0.1 0.2 1.9
v 0 0.2 1.8
v 0.1 0.2 1.8
v 0 0.2 1.4
v 0.1 0.2 1.4
v 0 0.2 1.2
v 0.1 0.2 1.2
v 0.1 0.2 0.8
v 0.2 0.2 0.8
v -0.1 0.2 0.7
v 0 0.2 0.7
v 0.1 0.2 0.7
v -0.1 0.2 0.6
v 0 0.2 0.6
v 0.1 0.2 0.6
v 0.2 0.2 0.6
v -0.1 0.2 0.5
v 0 0.2 0.5
v 0.1 0.2 0.5
v 0.2 0.2 0.5
v -0.1 0.2 0.4
v 0 0.2 0.4
v 0.1 0.2 0.2
v 0.2 0.2 0.2
v 0 0.3 2.4
v 0.1 0.3 2.4
v 0 0.3 1.9
v 0.1 0.3 1.9
v -0.2 0.3 -0.4
v -0.1 0.3 -0.4
v -0.2 0.3 -0.5
v -0.1 0.3 -0.5
v 0 0 -0.7
v 0.1 0 -0.7
v 0 0 -0.9
v 0.1 0 -0.9
v -0.1 0 -1.5
v 0 0 -1.5
v 0.1 0 -1.5
v 0.2 0 -1.5
v -0.1 0 -1.7
v 0 0 -1.7
v 0.1 0 -1.7
v 0.2 0 -1.7
v -0.1 0 -2.3
v 0 0 -2.3
v 0.1 0 -2.3
v 0.2 0 -2.3
v -0.1 0 -2.4
v 0 0 -2.4
v 0.1 0 -2.4
v 0.2 0 -2.4
v 0 0 -2.5
v 0.1 0 -2.5
v -0.1 0.1 -1.2
v 0 0.1 -1.2
v 0.1 0.1 -1.2
v 0.2 0.1 -1.2
v 0 0.1 -1.4
v 0.1 0.1 -1.4
v -0.1 0.1 -1.5
v 0 0.1 -1.5
v 0.1 0.1 -1.5
v 0.2 0.1 -1.5
v -0.1 0.1 -1.7
v 0 0.1 -1.7
v 0.1 0.1 -1.7
v 0.2 0.1 -1.7
v -0.1 0.1 -2.3
v 0 0.1 -2.3
v 0.1 0.1 -2.3
v 0.2 0.1 -2.3
v 0 0.1 -2.4
v 0.1 0.1 -2.4
v -0.1 0.2 -1
v 0 0.2 -1
v 0.1 0.2 -1
v 0.2 0.2 -1
v -0.1 0.2 -1.2
v 0 0.2 -1.2
v 0.1 0.2 -1.2
v 0.2 0.2 -1.2
v 0 0.2 -1.4
v 0.1 0.2 -1.4
v 0.1 0.3 0.8
v 0.2 0.3 0.8
v -0.1 0.3 0.7
v 0 0.3 0.7
v -0.1 0.3 0.6
v 0 0.3 0.6
v 0.1 0.3 0.6
v 0.2 0.3 0.6
v -0.1 0.3 0.5
v 0 0.3 0.5
v 0.1 0.3 0.5
v 0.2 0.3 0.5
v 0 0.3 0.4
v 0.1 0.3 0.4
v 0 0.3 0.3
v 0.1 0.3 0.3
v 0 0.3 -0.2
v 0.1 0.3 -0.2
v -0.1 0.3 -0.4
v 0 0.3 -0.4
v -0.1 0.3 -0.5
v 0 0.3 -0.5
v 0 0.3 -0.7
v 0.1 0.3 -0.7
v -0.1 0.3 -1
v 0 0.3 -1
v 0.1 0.3 -1
v 0.2 0.3 -1
v 0 0.3 -1.1
v 0.1 0.3 -1.1
v 0 0.3 -1.2
v 0.1 0.3 -1.2
v 0 0.4 2.4
v 0.1 0.4 2.4
v 0 0.4 2.3
v 0.1 0.4 2.3
v 0 0.4 2.2
v 0.1 0.4 2.2
v 0 0.4 1.9
v 0.1 0.4 1.9
v 0 0.4 1.8
v 0.1 0.4 1.8
v 0 0.4 0.6
v 0.1 0.4 0.6
v 0 0.4 0.5
v 0.1 0.4 0.5
v 0 0.4 0.4
v 0.1 0.4 0.4
v 0 0.4 0.3
v 0.1 0.4 0.3
v 0 0.4 -0.2
v 0.1 0.4 -0.2
v -0.2 0.4 -0.4
v 0 0.4 -0.4
v -0.2 0.4 -0.5
v 0 0.4 -0.5
v 0 0.4 -0.7
v 0.1 0.4 -0.7
v 0 0.4 -1
v 0.1 0.4 -1
v 0 0.4 -1.1
v 0.1 0.4 -1.1
v 0 0.5 2.3
v 0.1 0.5 2.3
v 0 0.5 2.2
v 0.1 0.5 2.2

# faces
f 3/1/1 2/1/1 1/1/1
f 4/1/1 2/1/1 3/1/1
f 9/2/1 6/2/1 5/2/1
f 10/2/1 6/2/1 9/2/1
f 13/2/1 8/2/1 7/2/1
f 14/3/1 9/3/1 8/3/1
f 14/2/1 8/2/1 13/2/1
f 15/2/1 11/2/1 10/2/1
f 15/3/1 9/3/1 14/3/1
f 15/2/1 10/2/1 9/2/1
f 17/2/1 14/2/1 13/2/1
f 17/2/1 13/2/1 12/2/1
f 17/2/1 15/2/1 14/2/1
f 18/2/1 15/2/1 17/2/1
f 19/2/1 15/2/1 18/2/1
f 20/2/1 11/2/1 15/2/1
f 20/2/1 15/2/1 19/2/1
f 21/2/1 11/2/1 20/2/1
f 23/2/1 17/2/1 16/2/1
f 23/2/1 18/2/1 17/2/1
f 24/2/1 18/2/1 23/2/1
f 25/2/1 18/2/1 24/2/1
f 26/2/1 20/2/1 19/2/1
f 27/2/1 20/2/1 26/2/1
f 31/2/1 23/2/1 22/2/1
f 31/2/1 24/2/1 23/2/1
f 32/2/1 24/2/1 31/2/1
f 33/2/1 24/2/1 32/2/1
f 34/2/1 29/2/1 28/2/1
f 35/4/1 30/4/1 29/4/1
f 35/2/1 29/2/1 34/2/1
f 36/2/1 31/2/1 30/2/1
f 36/4/1 30/4/1 35/4/1
f 36/2/1 32/2/1 31/2/1
f 37/2/1 32/2/1 36/2/1
f 38/2/1 32/2/1 37/2/1
f 39/2/1 32/2/1 38/2/1
f 44/2/1 41/2/1 40/2/1
f 45/2/1 41/2/1 44/2/1
f 46/2/1 41/2/1 45/2/1
f 48/2/1 43/2/1 42/2/1
f 49/2/1 43/2/1 48/2/1
f 50/2/1 47/2/1 46/2/1
f 50/2/1 46/2/1 45/2/1
f 51/2/1 47/2/1 50/2/1
f 55/6/1 53/6/1 52/6/1
f 56/6/1 53/6/1 55/6/1
f 57/6/1 53/6/1 56/6/1
f 63/2/1 47/2/1 51/2/1
f 64/2/1 47/2/1 63/2/1
f 68/6/1 55/6/1 54/6/1
f 68/6/1 56/6/1 55/6/1
f 69/6/1 56/6/1 68/6/1
f 70/6/1 58/6/1 57/6/1
f 71/2/1 59/2/1 58/2/1
f 71/6/1 58/6/1 70/6/1
f 72/2/1 59/2/1 71/2/1
f 75/2/1 61/2/1 60/2/1
f 76/2/1 61/2/1 75/2/1
f 77/2/1 63/2/1 62/2/1
f 78/2/1 63/2/1 77/2/1
f 84/4/1 66/4/1 65/4/1
f 85/2/1 67/2/1 66/2/1
f 85/4/1 66/4/1 84/4/1
f 86/2/1 67/2/1 85/2/1
f 88/2/1 74/2/1 73/2/1
f 89/2/1 74/2/1 88/2/1
f 91/4/1 80/4/1 79/4/1
f 92/2/1 81/2/1 80/2/1
f 92/3/1 82/3/1 81/3/1
f 93/2/1 83/2/1 82/2/1
f 93/3/1 82/3/1 92/3/1
f 94/2/1 83/2/1 93/2/1
f 103/2/1 88/2/1 87/2/1
f 104/2/1 88/2/1 103/2/1
f 105/2/1 88/2/1 104/2/1
f 106/1/1 91/1/1 90/1/1
f 107/1/1 91/1/1 106/1/1
f 108/1/1 91/1/1 107/1/1
f 109/4/1 80/4/1 91/4/1
f 109/1/1 91/1/1 108/1/1
f 110/2/1 92/2/1 80/2/1
f 110/4/1 80/4/1 109/4/1
f 110/2/1 93/2/1 92/2/1
f 110/2/1 94/2/1 93/2/1
f 110/2/1 95/2/1 94/2/1
f 111/4/1 96/4/1 95/4/1
f 111/2/1 95/2/1 110/2/1
f 112/2/1 97/2/1 96/2/1
f 112/4/1 96/4/1 111/4/1
f 113/5/1 98/5/1 97/5/1
f 113/2/1 97/2/1 112/2/1
f 114/6/1 99/6/1 98/6/1
f 114/5/1 98/5/1 113/5/1
f 115/1/1 100/1/1 99/1/1
f 115/6/1 99/6/1 114/6/1
f 116/1/1 100/1/1 115/1/1
f 117/1/1 102/1/1 101/1/1
f 118/5/1 103/5/1 102/5/1
f 118/1/1 102/1/1 117/1/1
f 119/1/1 104/1/1 103/1/1
f 119/5/1 103/5/1 118/5/1
f 120/1/1 104/1/1 119/1/1
f 121/1/1 108/1/1 107/1/1
f 122/1/1 108/1/1 121/1/1
f 123/2/2 124/2/2 127/2/2
f 127/2/2 124/2/2 128/2/2
f 128/2/2 124/2/2 129/2/2
f 125/2/2 126/2/2 131/2/2
f 131/2/2 126/2/2 132/2/2
f 129/2/2 130/2/2 133/2/2
f 128/2/2 129/2/2 133/2/2
f 133/2/2 130/2/2 134/2/2
f 135/6/2 136/6/2 138/6/2
f 138/6/2 136/6/2 139/6/2
f 139/6/2 136/6/2 140/6/2
f 134/2/2 130/2/2 146/2/2
f 146/2/2 130/2/2 147/2/2
f 137/6/2 138/6/2 151/6/2
f 138/6/2 139/6/2 151/6/2
f 151/6/2 139/6/2 152/6/2
f 140/6/2 141/6/2 153/6/2
f 141/2/2 142/2/2 154/2/2
f 153/6/2 141/6/2 154/6/2
f 154/2/2 142/2/2 155/2/2
f 143/2/2 144/2/2 158/2/2
f 158/2/2 144/2/2 159/2/2
f 145/2/2 146/2/2 160/2/2
f 160/2/2 146/2/2 161/2/2
f 148/4/2 149/4/2 167/4/2
f 149/2/2 150/2/2 168/2/2
f 167/4/2 149/4/2 168/4/2
f 168/2/2 150/2/2 169/2/2
f 156/2/2 157/2/2 171/2/2
f 171/2/2 157/2/2 172/2/2
f 162/4/2 163/4/2 174/4/2
f 163/2/2 164/2/2 175/2/2
f 164/3/2 165/3/2 175/3/2
f 165/2/2 166/2/2 176/2/2
f 175/3/2 165/3/2 176/3/2
f 176/2/2 166/2/2 177/2/2
f 170/2/2 171/2/2 184/2/2
f 184/2/2 171/2/2 185/2/2
f 185/2/2 171/2/2 186/2/2
f 173/1/2 174/1/2 187/1/2
f 187/1/2 174/1/2 188/1/2
f 188/1/2 174/1/2 189/1/2
f 174/4/2 163/4/2 190/4/2
f 189/1/2 174/1/2 190/1/2
f 163/2/2 175/2/2 191/2/2
f 190/4/2 163/4/2 191/4/2
f 175/2/2 176/2/2 191/2/2
f 176/2/2 177/2/2 191/2/2
f 177/2/2 178/2/2 191/2/2
f 178/4/2 179/4/2 192/4/2
f 191/2/2 178/2/2 192/2/2
f 179/2/2 180/2/2 193/2/2
f 192/4/2 179/4/2 193/4/2
f 180/5/2 181/5/2 194/5/2
f 193/2/2 180/2/2 194/2/2
f 181/6/2 182/6/2 195/6/2
f 194/5/2 181/5/2 195/5/2
f 182/1/2 183/1/2 196/1/2
f 195/6/2 182/6/2 196/6/2
f 183/5/2 184/5/2 197/5/2
f 196/1/2 183/1/2 197/1/2
f 184/1/2 185/1/2 198/1/2
f 197/5/2 184/5/2 198/5/2
f 198/1/2 185/1/2 199/1/2
f 188/1/2 189/1/2 200/1/2
f 200/1/2 189/1/2 201/1/2
f 202/2/2 203/2/2 206/2/2
f 206/2/2 203/2/2 207/2/2
f 204/2/2 205/2/2 210/2/2
f 205/3/2 206/3/2 211/3/2
f 210/2/2 205/2/2 211/2/2
f 207/2/2 208/2/2 212/2/2
f 211/3/2 206/3/2 212/3/2
f 206/2/2 207/2/2 212/2/2
f 210/2/2 211/2/2 214/2/2
f 209/2/2 210/2/2 214/2/2
f 211/2/2 212/2/2 214/2/2
f 214/2/2 212/2/2 215/2/2
f 215/2/2 212/2/2 216/2/2
f 212/2/2 208/2/2 217/2/2
f 216/2/2 212/2/2 217/2/2
f 217/2/2 208/2/2 218/2/2
f 213/2/2 214/2/2 220/2/2
f 214/2/2 215/2/2 220/2/2
f 220/2/2 215/2/2 221/2/2
f 221/2/2 215/2/2 222/2/2
f 216/2/2 217/2/2 223/2/2
f 223/2/2 217/2/2 224/2/2
f 219/2/2 220/2/2 228/2/2
f 220/2/2 221/2/2 228/2/2
f 228/2/2 221/2/2 229/2/2
f 229/2/2 221/2/2 230/2/2
f 225/2/2 226/2/2 231/2/2
f 226/4/2 227/4/2 232/4/2
f 231/2/2 226/2/2 232/2/2
f 227/2/2 228/2/2 233/2/2
f 232/4/2 227/4/2 233/4/2
f 228/2/2 229/2/2 233/2/2
f 233/2/2 229/2/2 234/2/2
f 237/1/3 236/1/3 235/1/3
f 238/1/3 236/1/3 237/1/3
f 241/1/3 240/1/3 239/1/3
f 242/1/3 240/1/3 241/1/3
f 245/4/3 244/4/3 243/4/3
f 246/4/3 244/4/3 245/4/3
f 249/2/3 248/2/3 247/2/3
f 250/2/3 248/2/3 249/2/3
f 253/2/3 252/2/3 251/2/3
f 254/2/3 252/2/3 253/2/3
f 257/4/3 256/4/3 255/4/3
f 258/4/3 256/4/3 257/4/3
f 261/2/3 260/2/3 259/2/3
f 262/2/3 260/2/3 261/2/3
f 265/2/3 264/2/3 263/2/3
f 266/2/3 264/2/3 265/2/3
f 269/6/3 268/6/3 267/6/3
f 270/6/3 268/6/3 269/6/3
f 273/1/3 272/1/3 271/1/3
f 276/1/3 272/1/3 273/1/3
f 277/1/3 272/1/3 276/1/3
f 278/6/3 275/6/3 274/6/3
f 279/6/3 275/6/3 278/6/3
f 282/6/3 281/6/3 280/6/3
f 283/6/3 281/6/3 282/6/3
f 286/2/3 285/2/3 284/2/3
f 287/2/3 285/2/3 286/2/3
f 290/2/3 289/2/3 288/2/3
f 291/2/3 289/2/3 290/2/3
f 294/2/3 293/2/3 292/2/3
f 295/2/3 293/2/3 294/2/3
f 298/2/3 297/2/3 296/2/3
f 299/2/3 297/2/3 298/2/3
f 304/2/3 301/2/3 300/2/3
f 305/2/3 301/2/3 304/2/3
f 306/2/3 303/2/3 302/2/3
f 307/2/3 303/2/3 306/2/3
f 310/2/3 309/2/3 308/2/3
f 311/2/3 309/2/3 310/2/3
f 314/2/3 313/2/3 312/2/3
f 315/2/3 313/2/3 314/2/3
f 318/2/3 317/2/3 316/2/3
f 319/2/3 317/2/3 318/2/3
f 322/2/3 321/2/3 320/2/3
f 323/2/3 321/2/3 322/2/3
f 324/1/4 325/1/4 326/1/4
f 326/1/4 325/1/4 327/1/4
f 328/1/4 329/1/4 330/1/4
f 330/1/4 329/1/4 331/1/4
f 331/1/4 329/1/4 332/1/4
f 333/6/4 334/6/4 335/6/4
f 335/6/4 334/6/4 336/6/4
f 337/6/4 338/6/4 339/6/4
f 339/6/4 338/6/4 340/6/4
f 341/2/4 342/2/4 343/2/4
f 343/2/4 342/2/4 344/2/4
f 345/2/4 346/2/4 347/2/4
f 347/2/4 346/2/4 348/2/4
f 349/1/4 350/1/4 351/1/4
f 351/1/4 350/1/4 352/1/4
f 353/2/4 354/2/4 355/2/4
f 355/2/4 354/2/4 356/2/4
f 356/2/4 357/2/4 359/2/4
f 359/2/4 357/2/4 360/2/4
f 358/2/4 359/2/4 361/2/4
f 361/2/4 359/2/4 362/2/4
f 363/2/4 364/2/4 365/2/4
f 365/2/4 364/2/4 366/2/4
f 367/2/4 368/2/4 369/2/4
f 369/2/4 368/2/4 370/2/4
f 371/2/4 372/2/4 373/2/4
f 373/2/4 372/2/4 374/2/4
f 375/2/4 376/2/4 379/2/4
f 379/2/4 376/2/4 380/2/4
f 377/2/4 378/2/4 381/2/4
f 381/2/4 378/2/4 382/2/4
f 383/2/4 384/2/4 387/2/4
f 387/2/4 384/2/4 388/2/4
f 385/2/4 386/2/4 389/2/4
f 389/2/4 386/2/4 390/2/4
f 391/2/4 392/2/4 395/2/4
f 395/2/4 392/2/4 396/2/4
f 393/2/4 394/2/4 398/2/4
f 398/2/4 394/2/4 399/2/4
f 396/2/4 397/2/4 401/2/4
f 401/2/4 397/2/4 402/2/4
f 400/2/4 401/2/4 403/2/4
f 403/2/4 401/2/4 404/2/4
f 405/2/4 406/2/4 407/2/4
f 407/2/4 406/2/4 408/2/4
f 411/2/5 410/2/5 409/2/5
f 412/2/5 410/2/5 411/2/5
f 416/2/5 414/2/5 413/2/5
f 417/2/5 414/2/5 416/2/5
f 419/2/5 416/2/5 415/2/5
f 419/2/5 418/2/5 417/2/5
f 419/2/5 417/2/5 416/2/5
f 420/2/5 418/2/5 419/2/5
f 421/2/5 419/2/5 415/2/5
f 422/2/5 419/2/5 421/2/5
f 423/2/5 418/2/5 420/2/5
f 424/2/5 418/2/5 423/2/5
f 427/2/5 426/2/5 425/2/5
f 428/2/5 426/2/5 427/2/5
f 431/2/5 430/2/5 429/2/5
f 432/2/5 430/2/5 431/2/5
f 433/2/5 430/2/5 432/2/5
f 434/2/5 430/2/5 433/2/5
f 435/3/5 432/3/5 431/3/5
f 435/2/5 433/2/5 432/2/5
f 436/3/5 434/3/5 433/3/5
f 436/2/5 433/2/5 435/2/5
f 437/3/5 435/3/5 431/3/5
f 438/3/5 435/3/5 437/3/5
f 439/3/5 434/3/5 436/3/5
f 440/3/5 434/3/5 439/3/5
f 445/2/5 442/2/5 441/2/5
f 446/2/5 442/2/5 445/2/5
f 447/2/5 444/2/5 443/2/5
f 448/2/5 444/2/5 447/2/5
f 451/6/5 450/6/5 449/6/5
f 452/6/5 450/6/5 451/6/5
f 455/2/5 454/2/5 453/2/5
f 456/2/5 454/2/5 455/2/5
f 459/6/5 458/6/5 457/6/5
f 460/6/5 458/6/5 459/6/5
f 463/6/5 462/6/5 461/6/5
f 464/6/5 462/6/5 463/6/5
f 466/2/5 464/2/5 463/2/5
f 467/2/5 464/2/5 466/2/5
f 469/2/5 467/2/5 466/2/5
f 469/2/5 468/2/5 467/2/5
f 469/2/5 466/2/5 465/2/5
f 470/2/5 468/2/5 469/2/5
f 473/4/5 472/4/5 471/4/5
f 474/4/5 472/4/5 473/4/5
f 476/2/5 474/2/5 473/2/5
f 477/2/5 474/2/5 476/2/5
f 477/2/5 476/2/5 475/2/5
f 479/2/5 477/2/5 475/2/5
f 479/2/5 478/2/5 477/2/5
f 480/2/5 478/2/5 479/2/5
f 481/2/5 479/2/5 475/2/5
f 482/2/5 478/2/5 480/2/5
f 483/2/5 481/2/5 475/2/5
f 483/6/5 482/6/5 481/6/5
f 484/2/5 478/2/5 482/2/5
f 484/6/5 482/6/5 483/6/5
f 485/2/5 483/2/5 475/2/5
f 486/2/5 478/2/5 484/2/5
f 487/2/5 485/2/5 475/2/5
f 488/2/5 485/2/5 487/2/5
f 489/2/5 478/2/5 486/2/5
f 490/2/5 478/2/5 489/2/5
f 493/4/5 492/4/5 491/4/5
f 494/4/5 492/4/5 493/4/5
f 495/2/5 494/2/5 493/2/5
f 496/2/5 494/2/5 495/2/5
f 497/3/5 496/3/5 495/3/5
f 498/3/5 496/3/5 497/3/5
f 499/2/5 498/2/5 497/2/5
f 502/2/5 499/2/5 497/2/5
f 502/2/5 500/2/5 499/2/5
f 503/2/5 500/2/5 502/2/5
f 504/2/5 502/2/5 501/2/5
f 505/4/5 503/4/5 502/4/5
f 505/2/5 502/2/5 504/2/5
f 506/2/5 500/2/5 503/2/5
f 506/4/5 503/4/5 505/4/5
f 507/2/5 500/2/5 506/2/5
f 508/4/5 505/4/5 504/4/5
f 509/4/5 505/4/5 508/4/5
f 510/4/5 507/4/5 506/4/5
f 511/4/5 507/4/5 510/4/5
f 512/2/5 509/2/5 508/2/5
f 513/2/5 509/2/5 512/2/5
f 514/2/5 511/2/5 510/2/5
f 515/2/5 511/2/5 514/2/5
f 518/1/5 517/1/5 516/1/5
f 519/1/5 517/1/5 518/1/5
f 522/1/5 521/1/5 520/1/5
f 523/1/5 521/1/5 522/1/5
f 524/6/6 525/6/6 526/6/6
f 526/6/6 525/6/6 527/6/6
f 528/2/6 529/2/6 532/2/6
f 532/2/6 529/2/6 533/2/6
f 530/2/6 531/2/6 534/2/6
f 534/2/6 531/2/6 535/2/6
f 536/2/6 537/2/6 540/2/6
f 540/2/6 537/2/6 541/2/6
f 538/2/6 539/2/6 542/2/6
f 542/2/6 539/2/6 543/2/6
f 541/2/6 542/2/6 544/2/6
f 544/2/6 542/2/6 545/2/6
f 546/2/6 547/2/6 550/2/6
f 548/2/6 549/2/6 551/2/6
f 546/2/6 550/2/6 552/2/6
f 550/2/6 551/2/6 552/2/6
f 552/2/6 551/2/6 553/2/6
f 551/2/6 549/2/6 554/2/6
f 553/2/6 551/2/6 554/2/6
f 554/2/6 549/2/6 555/2/6
f 553/2/6 554/2/6 557/2/6
f 557/2/6 554/2/6 558/2/6
f 556/2/6 557/2/6 560/2/6
f 558/2/6 559/2/6 560/2/6
f 557/2/6 558/2/6 560/2/6
f 560/2/6 559/2/6 561/2/6
f 561/2/6 559/2/6 562/2/6
f 562/2/6 559/2/6 563/2/6
f 561/2/6 562/2/6 564/2/6
f 564/2/6 562/2/6 565/2/6
f 566/2/6 567/2/6 570/2/6
f 570/2/6 567/2/6 571/2/6
f 568/2/6 569/2/6 572/2/6
f 572/2/6 569/2/6 573/2/6
f 571/2/6 572/2/6 574/2/6
f 574/2/6 572/2/6 575/2/6
f 578/2/6 579/2/6 580/2/6
f 580/2/6 579/2/6 581/2/6
f 576/2/6 577/2/6 582/2/6
f 582/2/6 577/2/6 583/2/6
f 580/4/6 581/4/6 584/4/6
f 584/4/6 581/4/6 585/4/6
f 582/4/6 583/4/6 586/4/6
f 586/4/6 583/4/6 587/4/6
f 584/2/6 585/2/6 588/2/6
f 586/2/6 587/2/6 589/2/6
f 584/2/6 588/2/6 590/2/6
f 589/2/6 587/2/6 591/2/6
f 584/2/6 590/2/6 592/2/6
f 591/2/6 587/2/6 593/2/6
f 584/2/6 592/2/6 594/2/6
f 594/2/6 592/2/6 595/2/6
f 596/2/6 597/2/6 598/2/6
f 593/2/6 587/2/6 599/2/6
f 596/2/6 598/2/6 600/2/6
f 600/2/6 598/2/6 601/2/6
f 599/2/6 587/2/6 602/2/6
f 602/2/6 587/2/6 603/2/6
f 604/2/6 605/2/6 606/2/6
f 606/2/6 605/2/6 607/2/6
f 608/1/6 609/1/6 610/1/6
f 610/1/6 609/1/6 611/1/6
f 612/1/6 613/1/6 614/1/6
f 614/1/6 613/1/6 615/1/6
f 614/4/6 615/4/6 616/4/6
f 616/4/6 615/4/6 617/4/6
f 616/2/6 617/2/6 618/2/6
f 618/2/6 617/2/6 619/2/6
f 618/4/6 619/4/6 620/4/6
f 620/4/6 619/4/6 621/4/6
f 620/2/6 621/2/6 622/2/6
f 622/2/6 621/2/6 623/2/6
f 622/5/6 623/5/6 624/5/6
f 624/5/6 623/5/6 625/5/6
f 624/6/6 625/6/6 626/6/6
f 626/6/6 625/6/6 627/6/6
f 626/1/6 627/1/6 629/1/6
f 628/1/6 629/1/6 630/1/6
f 629/1/6 627/1/6 631/1/6
f 630/1/6 629/1/6 631/1/6
f 631/1/6 627/1/6 632/1/6
f 632/1/6 627/1/6 633/1/6
f 632/5/6 633/5/6 634/5/6
f 634/5/6 633/5/6 635/5/6
f 634/1/6 635/1/6 636/1/6
f 636/1/6 635/1/6 637/1/6
f 638/1/6 639/1/6 640/1/6
f 640/1/6 639/1/6 641/1/6
