# MagicaVoxel @ Ephtracy

# group
o 

# material
mtllib mp18.mtl
usemtl palette

# normals
vn -1 0 0
vn 1 0 0
vn 0 0 1
vn 0 0 -1
vn 0 -1 0
vn 0 1 0

# texcoords
vt 0.00195313 0.5
vt 0.00585938 0.5
vt 0.00976563 0.5
vt 0.0136719 0.5
vt 0.0175781 0.5

# verts
v -0.2 -0.3 -0.6
v -0.2 -0.3 -0.9
v -0.2 -0.2 -0.3
v -0.2 -0.2 -0.6
v -0.2 -0.1 -2.38419e-007
v -0.2 -0.1 -0.3
v -0.2 0 0.0999999
v -0.2 0 -2.38419e-007
v -0.2 0 -0.3
v -0.2 0 -0.7
v -0.2 0.1 1.3
v -0.2 0.1 0.0999999
v -0.2 0.1 -2.38419e-007
v -0.2 0.1 -0.3
v -0.2 0.1 -0.7
v -0.2 0.1 -0.9
v -0.2 0.2 2.3
v -0.2 0.2 2.2
v -0.2 0.2 2.1
v -0.2 0.2 2
v -0.2 0.2 1.9
v -0.2 0.2 1.8
v -0.2 0.2 1.7
v -0.2 0.2 1.6
v -0.2 0.2 1.5
v -0.2 0.2 1.3
v -0.2 0.2 0.8
v -0.2 0.2 0.6
v -0.2 0.2 0.2
v -0.2 0.2 -2.38419e-007
v -0.2 0.3 2.3
v -0.2 0.3 2.2
v -0.2 0.3 2.1
v -0.2 0.3 2
v -0.2 0.3 1.9
v -0.2 0.3 1.8
v -0.2 0.3 1.7
v -0.2 0.3 1.6
v -0.2 0.3 1.5
v -0.2 0.3 1.2
v -0.2 0.3 1.1
v -0.2 0.3 0.8
v -0.2 0.3 0.6
v -0.2 0.3 0.2
v -0.2 0.4 1.2
v -0.2 0.4 1.1
v -0.1 -0.2 0.3
v -0.1 -0.2 0.2
v -0.1 -0.1 0.4
v -0.1 -0.1 0.3
v -0.1 -0.1 0.2
v -0.1 -0.1 0.0999999
v -0.1 -0.1 -2.38419e-007
v -0.1 0 1.3
v -0.1 0 1.1
v -0.1 0 0.9
v -0.1 0 0.4
v -0.1 0 0.3
v -0.1 0 0.2
v -0.1 0 0.0999999
v -0.1 0 -2.38419e-007
v -0.1 0 -0.3
v -0.1 0 -0.7
v -0.1 0.1 2.3
v -0.1 0.1 2.1
v -0.1 0.1 2
v -0.1 0.1 1.9
v -0.1 0.1 1.8
v -0.1 0.1 1.7
v -0.1 0.1 1.6
v -0.1 0.1 1.5
v -0.1 0.1 1.4
v -0.1 0.1 1.3
v -0.1 0.1 1.1
v -0.1 0.1 0.9
v -0.1 0.1 0.0999999
v -0.1 0.1 -0.3
v -0.1 0.1 -0.7
v -0.1 0.2 2.3
v -0.1 0.2 2.2
v -0.1 0.2 2.1
v -0.1 0.2 2
v -0.1 0.2 1.9
v -0.1 0.2 1.8
v -0.1 0.2 1.7
v -0.1 0.2 1.6
v -0.1 0.2 1.5
v -0.1 0.2 1.4
v -0.1 0.2 1.3
v -0.1 0.2 0.2
v -0.1 0.2 -2.38419e-007
v -0.1 0.3 2.3
v -0.1 0.3 2.2
v -0.1 0.3 2.1
v -0.1 0.3 2
v -0.1 0.3 1.9
v -0.1 0.3 1.8
v -0.1 0.3 1.7
v -0.1 0.3 1.6
v -0.1 0.3 1.5
v -0.1 0.3 1.4
v -0.1 0.3 1.2
v -0.1 0.3 1.1
v -0.1 0.3 0.8
v -0.1 0.3 0.6
v -0.1 0.3 0.2
v -0.1 0.3 -2.38419e-007
v -0.1 0.4 2.3
v -0.1 0.4 2.1
v -0.1 0.4 2
v -0.1 0.4 1.9
v -0.1 0.4 1.8
v -0.1 0.4 1.7
v -0.1 0.4 1.6
v -0.1 0.4 1.5
v -0.1 0.4 1.4
v -0.1 0.4 1.2
v -0.1 0.4 1.1
v -0.1 0.4 0.2
v 0.6 0.3 1.3
v 0.6 0.3 1.1
v 0.6 0.5 1.3
v 0.6 0.5 1.1
v 0.7 0.5 1.3
v 0.7 0.5 1.1
v 0.7 0.6 1.3
v 0.7 0.6 1.1
v 0 -0.2 0.3
v 0 -0.2 0.2
v 0 -0.1 0.4
v 0 -0.1 0.3
v 0 -0.1 0.2
v 0 -0.1 0.0999999
v 0 -0.1 -2.38419e-007
v 0 0 1.3
v 0 0 1.1
v 0 0 0.9
v 0 0 0.4
v 0 0 0.3
v 0 0 0.2
v 0 0 0.0999999
v 0 0 -2.38419e-007
v 0 0 -0.3
v 0 0 -0.7
v 0 0.1 2.3
v 0 0.1 2.1
v 0 0.1 2
v 0 0.1 1.9
v 0 0.1 1.8
v 0 0.1 1.7
v 0 0.1 1.6
v 0 0.1 1.5
v 0 0.1 1.4
v 0 0.1 1.3
v 0 0.1 1.1
v 0 0.1 0.9
v 0 0.1 0.0999999
v 0 0.1 -0.3
v 0 0.1 -0.7
v 0 0.2 2.3
v 0 0.2 2.2
v 0 0.2 2.1
v 0 0.2 2
v 0 0.2 1.9
v 0 0.2 1.8
v 0 0.2 1.7
v 0 0.2 1.6
v 0 0.2 1.5
v 0 0.2 1.4
v 0 0.2 1.3
v 0 0.2 0.2
v 0 0.2 -2.38419e-007
v 0 0.3 2.3
v 0 0.3 2.2
v 0 0.3 2.1
v 0 0.3 2
v 0 0.3 1.9
v 0 0.3 1.8
v 0 0.3 1.7
v 0 0.3 1.6
v 0 0.3 1.5
v 0 0.3 1.4
v 0 0.3 1.3
v 0 0.3 0.6
v 0 0.3 0.5
v 0 0.3 0.2
v 0 0.3 -2.38419e-007
v 0 0.4 2.3
v 0 0.4 2.1
v 0 0.4 2
v 0 0.4 1.9
v 0 0.4 1.8
v 0 0.4 1.7
v 0 0.4 1.6
v 0 0.4 1.5
v 0 0.4 1.4
v 0 0.4 0.2
v 0.1 -0.3 -0.6
v 0.1 -0.3 -0.9
v 0.1 -0.2 -0.3
v 0.1 -0.2 -0.6
v 0.1 -0.1 -2.38419e-007
v 0.1 -0.1 -0.3
v 0.1 0 0.0999999
v 0.1 0 -2.38419e-007
v 0.1 0 -0.3
v 0.1 0 -0.7
v 0.1 0.1 1.3
v 0.1 0.1 0.0999999
v 0.1 0.1 -2.38419e-007
v 0.1 0.1 -0.3
v 0.1 0.1 -0.7
v 0.1 0.1 -0.9
v 0.1 0.2 2.3
v 0.1 0.2 2.2
v 0.1 0.2 2.1
v 0.1 0.2 2
v 0.1 0.2 1.9
v 0.1 0.2 1.8
v 0.1 0.2 1.7
v 0.1 0.2 1.6
v 0.1 0.2 1.5
v 0.1 0.2 1.4
v 0.1 0.2 1.3
v 0.1 0.2 1.1
v 0.1 0.2 0.6
v 0.1 0.2 0.5
v 0.1 0.2 0.2
v 0.1 0.2 -2.38419e-007
v 0.1 0.3 2.3
v 0.1 0.3 2.2
v 0.1 0.3 2.1
v 0.1 0.3 2
v 0.1 0.3 1.9
v 0.1 0.3 1.8
v 0.1 0.3 1.7
v 0.1 0.3 1.6
v 0.1 0.3 1.5
v 0.1 0.3 1.4
v 0.1 0.3 1.3
v 0.1 0.3 1.1
v 0.1 0.3 0.6
v 0.1 0.3 0.5
v 0.1 0.3 0.2
v 0.9 0.2 1.3
v 0.9 0.2 1.1
v 0.9 0.3 1.3
v 0.9 0.3 1.1
v 0.9 0.5 1.3
v 0.9 0.5 1.1
v 0.9 0.6 1.3
v 0.9 0.6 1.1
v 1 0.3 1.3
v 1 0.3 1.1
v 1 0.5 1.3
v 1 0.5 1.1
v -0.2 0.2 2.3
v -0.2 0.3 2.3
v -0.1 0.1 2.3
v -0.1 0.2 2.3
v -0.1 0.3 2.3
v -0.1 0.4 2.3
v 0 0.1 2.3
v 0 0.2 2.3
v 0 0.3 2.3
v 0 0.4 2.3
v 0.1 0.2 2.3
v 0.1 0.3 2.3
v -0.2 0.1 1.3
v -0.2 0.2 1.3
v -0.1 0 1.3
v -0.1 0.1 1.3
v -0.1 0.2 1.3
v 0 0 1.3
v 0 0.1 1.3
v 0 0.2 1.3
v 0.1 0.1 1.3
v 0.1 0.2 1.3
v 0.1 0.3 1.3
v 0.2 0.2 1.3
v 0.2 0.3 1.3
v 0.6 0.3 1.3
v 0.6 0.5 1.3
v 0.7 0.2 1.3
v 0.7 0.3 1.3
v 0.7 0.5 1.3
v 0.7 0.6 1.3
v 0.9 0.2 1.3
v 0.9 0.3 1.3
v 0.9 0.5 1.3
v 0.9 0.6 1.3
v 1 0.3 1.3
v 1 0.5 1.3
v -0.2 0.3 1.2
v -0.2 0.4 1.2
v -0.1 0.3 1.2
v -0.1 0.4 1.2
v -0.1 -0.1 0.4
v -0.1 0 0.4
v 0 -0.1 0.4
v 0 0 0.4
v -0.1 -0.2 0.3
v -0.1 -0.1 0.3
v 0 -0.2 0.3
v 0 -0.1 0.3
v -0.1 -0.1 0.2
v -0.1 0 0.2
v 0 -0.1 0.2
v 0 0 0.2
v -0.2 0 0.0999999
v -0.2 0.1 0.0999999
v -0.1 0 0.0999999
v -0.1 0.1 0.0999999
v 0 0 0.0999999
v 0 0.1 0.0999999
v 0.1 0 0.0999999
v 0.1 0.1 0.0999999
v -0.2 -0.1 -2.38419e-007
v -0.2 0 -2.38419e-007
v -0.1 -0.1 -2.38419e-007
v -0.1 0 -2.38419e-007
v 0 -0.1 -2.38419e-007
v 0 0 -2.38419e-007
v 0.1 -0.1 -2.38419e-007
v 0.1 0 -2.38419e-007
v -0.2 -0.2 -0.3
v -0.2 -0.1 -0.3
v 0.1 -0.2 -0.3
v 0.1 -0.1 -0.3
v -0.2 -0.3 -0.6
v -0.2 -0.2 -0.6
v 0.1 -0.3 -0.6
v 0.1 -0.2 -0.6
v -0.2 0 -0.7
v -0.2 0.1 -0.7
v -0.1 0 -0.7
v -0.1 0.1 -0.7
v 0 0 -0.7
v 0 0.1 -0.7
v 0.1 0 -0.7
v 0.1 0.1 -0.7
v -0.2 0.3 1.1
v -0.2 0.4 1.1
v -0.1 0.3 1.1
v -0.1 0.4 1.1
v 0.1 0.2 1.1
v 0.1 0.3 1.1
v 0.2 0.2 1.1
v 0.2 0.3 1.1
v 0.6 0.3 1.1
v 0.6 0.5 1.1
v 0.7 0.2 1.1
v 0.7 0.3 1.1
v 0.7 0.5 1.1
v 0.7 0.6 1.1
v 0.9 0.2 1.1
v 0.9 0.3 1.1
v 0.9 0.5 1.1
v 0.9 0.6 1.1
v 1 0.3 1.1
v 1 0.5 1.1
v -0.1 -0.1 0.3
v -0.1 0 0.3
v 0 -0.1 0.3
v 0 0 0.3
v -0.2 0.2 0.2
v -0.2 0.3 0.2
v -0.1 -0.2 0.2
v -0.1 -0.1 0.2
v -0.1 0.2 0.2
v -0.1 0.3 0.2
v -0.1 0.4 0.2
v 0 -0.2 0.2
v 0 -0.1 0.2
v 0 0.2 0.2
v 0 0.3 0.2
v 0 0.4 0.2
v 0.1 0.2 0.2
v 0.1 0.3 0.2
v -0.2 0.1 -2.38419e-007
v -0.2 0.2 -2.38419e-007
v -0.1 0.2 -2.38419e-007
v -0.1 0.3 -2.38419e-007
v 0 0.2 -2.38419e-007
v 0 0.3 -2.38419e-007
v 0.1 0.1 -2.38419e-007
v 0.1 0.2 -2.38419e-007
v -0.2 0 -0.3
v -0.2 0.1 -0.3
v -0.1 0 -0.3
v -0.1 0.1 -0.3
v 0 0 -0.3
v 0 0.1 -0.3
v 0.1 0 -0.3
v 0.1 0.1 -0.3
v -0.2 -0.3 -0.9
v -0.2 0.1 -0.9
v 0.1 -0.3 -0.9
v 0.1 0.1 -0.9
v -0.2 -0.3 -0.6
v 0.1 -0.3 -0.6
v -0.2 -0.3 -0.9
v 0.1 -0.3 -0.9
v -0.1 -0.2 0.3
v 0 -0.2 0.3
v -0.1 -0.2 0.2
v 0 -0.2 0.2
v -0.2 -0.2 -0.3
v 0.1 -0.2 -0.3
v -0.2 -0.2 -0.6
v 0.1 -0.2 -0.6
v -0.1 -0.1 0.4
v 0 -0.1 0.4
v -0.1 -0.1 0.3
v 0 -0.1 0.3
v -0.1 -0.1 0.2
v 0 -0.1 0.2
v -0.1 -0.1 0.0999999
v 0 -0.1 0.0999999
v -0.2 -0.1 -2.38419e-007
v -0.1 -0.1 -2.38419e-007
v 0 -0.1 -2.38419e-007
v 0.1 -0.1 -2.38419e-007
v -0.2 -0.1 -0.3
v 0.1 -0.1 -0.3
v -0.1 0 1.3
v 0 0 1.3
v -0.1 0 1.1
v 0 0 1.1
v -0.1 0 0.9
v 0 0 0.9
v -0.1 0 0.4
v 0 0 0.4
v -0.1 0 0.3
v 0 0 0.3
v -0.1 0 0.2
v 0 0 0.2
v -0.2 0 0.0999999
v -0.1 0 0.0999999
v 0 0 0.0999999
v 0.1 0 0.0999999
v -0.2 0 -2.38419e-007
v -0.1 0 -2.38419e-007
v 0 0 -2.38419e-007
v 0.1 0 -2.38419e-007
v -0.1 0.1 2.3
v 0 0.1 2.3
v -0.1 0.1 2.1
v 0 0.1 2.1
v -0.1 0.1 2
v 0 0.1 2
v -0.1 0.1 1.9
v 0 0.1 1.9
v -0.1 0.1 1.8
v 0 0.1 1.8
v -0.1 0.1 1.7
v 0 0.1 1.7
v -0.1 0.1 1.6
v 0 0.1 1.6
v -0.1 0.1 1.5
v 0 0.1 1.5
v -0.1 0.1 1.4
v 0 0.1 1.4
v -0.2 0.1 1.3
v -0.1 0.1 1.3
v 0 0.1 1.3
v 0.1 0.1 1.3
v -0.1 0.1 1.1
v 0 0.1 1.1
v -0.1 0.1 0.9
v 0 0.1 0.9
v -0.2 0.1 0.0999999
v -0.1 0.1 0.0999999
v 0 0.1 0.0999999
v 0.1 0.1 0.0999999
v -0.2 0.2 2.3
v -0.1 0.2 2.3
v 0 0.2 2.3
v 0.1 0.2 2.3
v -0.2 0.2 2.2
v -0.1 0.2 2.2
v 0 0.2 2.2
v 0.1 0.2 2.2
v -0.2 0.2 2.1
v -0.1 0.2 2.1
v 0 0.2 2.1
v 0.1 0.2 2.1
v -0.2 0.2 2
v -0.1 0.2 2
v 0 0.2 2
v 0.1 0.2 2
v -0.2 0.2 1.9
v -0.1 0.2 1.9
v 0 0.2 1.9
v 0.1 0.2 1.9
v -0.2 0.2 1.8
v -0.1 0.2 1.8
v 0 0.2 1.8
v 0.1 0.2 1.8
v -0.2 0.2 1.7
v -0.1 0.2 1.7
v 0 0.2 1.7
v 0.1 0.2 1.7
v -0.2 0.2 1.6
v -0.1 0.2 1.6
v 0 0.2 1.6
v 0.1 0.2 1.6
v -0.2 0.2 1.5
v -0.1 0.2 1.5
v 0 0.2 1.5
v 0.1 0.2 1.5
v -0.1 0.2 1.4
v 0 0.2 1.4
v 0.1 0.2 1.4
v -0.2 0.2 1.3
v -0.1 0.2 1.3
v 0 0.2 1.3
v 0.1 0.2 1.3
v 0.2 0.2 1.3
v 0.7 0.2 1.3
v 0.9 0.2 1.3
v 0.1 0.2 1.1
v 0.2 0.2 1.1
v 0.7 0.2 1.1
v 0.9 0.2 1.1
v 0.9 0.3 1.3
v 1 0.3 1.3
v 0.9 0.3 1.1
v 1 0.3 1.1
v -0.1 -0.1 0.3
v 0 -0.1 0.3
v -0.1 -0.1 0.2
v 0 -0.1 0.2
v -0.2 0 -0.3
v -0.1 0 -0.3
v 0 0 -0.3
v 0.1 0 -0.3
v -0.2 0 -0.7
v -0.1 0 -0.7
v 0 0 -0.7
v 0.1 0 -0.7
v -0.2 0.1 -2.38419e-007
v 0.1 0.1 -2.38419e-007
v -0.2 0.1 -0.3
v -0.1 0.1 -0.3
v 0 0.1 -0.3
v 0.1 0.1 -0.3
v -0.2 0.1 -0.7
v -0.1 0.1 -0.7
v 0 0.1 -0.7
v 0.1 0.1 -0.7
v -0.2 0.1 -0.9
v 0.1 0.1 -0.9
v -0.2 0.2 0.2
v -0.1 0.2 0.2
v 0 0.2 0.2
v 0.1 0.2 0.2
v -0.2 0.2 -2.38419e-007
v -0.1 0.2 -2.38419e-007
v 0 0.2 -2.38419e-007
v 0.1 0.2 -2.38419e-007
v -0.2 0.3 2.3
v -0.1 0.3 2.3
v 0 0.3 2.3
v 0.1 0.3 2.3
v -0.2 0.3 2.2
v -0.1 0.3 2.2
v 0 0.3 2.2
v 0.1 0.3 2.2
v -0.2 0.3 2.1
v -0.1 0.3 2.1
v 0 0.3 2.1
v 0.1 0.3 2.1
v -0.2 0.3 2
v -0.1 0.3 2
v 0 0.3 2
v 0.1 0.3 2
v -0.2 0.3 1.9
v -0.1 0.3 1.9
v 0 0.3 1.9
v 0.1 0.3 1.9
v -0.2 0.3 1.8
v -0.1 0.3 1.8
v 0 0.3 1.8
v 0.1 0.3 1.8
v -0.2 0.3 1.7
v -0.1 0.3 1.7
v 0 0.3 1.7
v 0.1 0.3 1.7
v -0.2 0.3 1.6
v -0.1 0.3 1.6
v 0 0.3 1.6
v 0.1 0.3 1.6
v -0.2 0.3 1.5
v -0.1 0.3 1.5
v 0 0.3 1.5
v 0.1 0.3 1.5
v -0.1 0.3 1.4
v 0 0.3 1.4
v 0.1 0.3 1.4
v 0 0.3 1.3
v 0.1 0.3 1.3
v 0.2 0.3 1.3
v 0.6 0.3 1.3
v -0.2 0.3 1.2
v -0.1 0.3 1.2
v -0.2 0.3 1.1
v -0.1 0.3 1.1
v 0.1 0.3 1.1
v 0.2 0.3 1.1
v 0.6 0.3 1.1
v -0.2 0.3 0.8
v -0.1 0.3 0.8
v -0.2 0.3 0.6
v -0.1 0.3 0.6
v 0 0.3 0.6
v 0.1 0.3 0.6
v 0 0.3 0.5
v 0.1 0.3 0.5
v -0.2 0.3 0.2
v -0.1 0.3 0.2
v 0 0.3 0.2
v 0.1 0.3 0.2
v -0.1 0.3 -2.38419e-007
v 0 0.3 -2.38419e-007
v -0.1 0.4 2.3
v 0 0.4 2.3
v -0.1 0.4 2.1
v 0 0.4 2.1
v -0.1 0.4 2
v 0 0.4 2
v -0.1 0.4 1.9
v 0 0.4 1.9
v -0.1 0.4 1.8
v 0 0.4 1.8
v -0.1 0.4 1.7
v 0 0.4 1.7
v -0.1 0.4 1.6
v 0 0.4 1.6
v -0.1 0.4 1.5
v 0 0.4 1.5
v -0.1 0.4 1.4
v 0 0.4 1.4
v -0.2 0.4 1.2
v -0.1 0.4 1.2
v -0.2 0.4 1.1
v -0.1 0.4 1.1
v -0.1 0.4 0.2
v 0 0.4 0.2
v 0.6 0.5 1.3
v 0.7 0.5 1.3
v 0.9 0.5 1.3
v 1 0.5 1.3
v 0.6 0.5 1.1
v 0.7 0.5 1.1
v 0.9 0.5 1.1
v 1 0.5 1.1
v 0.7 0.6 1.3
v 0.9 0.6 1.3
v 0.7 0.6 1.1
v 0.9 0.6 1.1

# faces
f 4/1/1 2/1/1 1/1/1
f 6/1/1 4/1/1 3/1/1
f 8/1/1 6/1/1 5/1/1
f 9/1/1 4/1/1 6/1/1
f 9/1/1 6/1/1 8/1/1
f 10/1/1 2/1/1 4/1/1
f 10/1/1 4/1/1 9/1/1
f 12/1/1 9/1/1 8/1/1
f 12/1/1 8/1/1 7/1/1
f 13/1/1 9/1/1 12/1/1
f 14/1/1 9/1/1 13/1/1
f 15/1/1 2/1/1 10/1/1
f 16/1/1 2/1/1 15/1/1
f 26/1/1 12/1/1 11/1/1
f 26/1/1 13/1/1 12/1/1
f 27/1/1 13/1/1 26/1/1
f 28/1/1 13/1/1 27/1/1
f 29/1/1 13/1/1 28/1/1
f 30/1/1 13/1/1 29/1/1
f 31/2/1 18/2/1 17/2/1
f 32/3/1 19/3/1 18/3/1
f 32/2/1 18/2/1 31/2/1
f 33/2/1 20/2/1 19/2/1
f 33/3/1 19/3/1 32/3/1
f 34/3/1 21/3/1 20/3/1
f 34/2/1 20/2/1 33/2/1
f 35/2/1 22/2/1 21/2/1
f 35/3/1 21/3/1 34/3/1
f 36/3/1 23/3/1 22/3/1
f 36/2/1 22/2/1 35/2/1
f 37/2/1 24/2/1 23/2/1
f 37/3/1 23/3/1 36/3/1
f 38/3/1 25/3/1 24/3/1
f 38/2/1 24/2/1 37/2/1
f 39/2/1 26/2/1 25/2/1
f 39/3/1 25/3/1 38/3/1
f 39/2/1 27/2/1 26/2/1
f 40/2/1 27/2/1 39/2/1
f 41/2/1 27/2/1 40/2/1
f 42/3/1 28/3/1 27/3/1
f 42/2/1 27/2/1 41/2/1
f 43/2/1 29/2/1 28/2/1
f 43/3/1 28/3/1 42/3/1
f 44/2/1 29/2/1 43/2/1
f 45/2/1 41/2/1 40/2/1
f 46/2/1 41/2/1 45/2/1
f 50/2/1 48/2/1 47/2/1
f 51/2/1 48/2/1 50/2/1
f 57/2/1 50/2/1 49/2/1
f 58/2/1 50/2/1 57/2/1
f 59/2/1 52/2/1 51/2/1
f 60/1/1 53/1/1 52/1/1
f 60/2/1 52/2/1 59/2/1
f 61/1/1 53/1/1 60/1/1
f 73/1/1 55/1/1 54/1/1
f 74/4/1 56/4/1 55/4/1
f 74/1/1 55/1/1 73/1/1
f 75/1/1 59/1/1 58/1/1
f 75/4/1 56/4/1 74/4/1
f 75/1/1 58/1/1 57/1/1
f 75/1/1 57/1/1 56/1/1
f 75/1/1 60/1/1 59/1/1
f 76/1/1 60/1/1 75/1/1
f 77/1/1 63/1/1 62/1/1
f 78/1/1 63/1/1 77/1/1
f 79/2/1 65/2/1 64/2/1
f 80/2/1 65/2/1 79/2/1
f 81/3/1 66/3/1 65/3/1
f 81/2/1 65/2/1 80/2/1
f 82/2/1 67/2/1 66/2/1
f 82/3/1 66/3/1 81/3/1
f 83/3/1 68/3/1 67/3/1
f 83/2/1 67/2/1 82/2/1
f 84/2/1 69/2/1 68/2/1
f 84/3/1 68/3/1 83/3/1
f 85/3/1 70/3/1 69/3/1
f 85/2/1 69/2/1 84/2/1
f 86/2/1 71/2/1 70/2/1
f 86/3/1 70/3/1 85/3/1
f 87/3/1 72/3/1 71/3/1
f 87/2/1 71/2/1 86/2/1
f 88/2/1 73/2/1 72/2/1
f 88/3/1 72/3/1 87/3/1
f 89/2/1 73/2/1 88/2/1
f 106/2/1 91/2/1 90/2/1
f 107/2/1 91/2/1 106/2/1
f 108/2/1 93/2/1 92/2/1
f 108/2/1 94/2/1 93/2/1
f 109/3/1 95/3/1 94/3/1
f 109/2/1 94/2/1 108/2/1
f 110/2/1 96/2/1 95/2/1
f 110/3/1 95/3/1 109/3/1
f 111/3/1 97/3/1 96/3/1
f 111/2/1 96/2/1 110/2/1
f 112/2/1 98/2/1 97/2/1
f 112/3/1 97/3/1 111/3/1
f 113/3/1 99/3/1 98/3/1
f 113/2/1 98/2/1 112/2/1
f 114/2/1 100/2/1 99/2/1
f 114/3/1 99/3/1 113/3/1
f 115/3/1 101/3/1 100/3/1
f 115/2/1 100/2/1 114/2/1
f 116/2/1 102/2/1 101/2/1
f 116/3/1 101/3/1 115/3/1
f 117/2/1 102/2/1 116/2/1
f 118/2/1 105/2/1 104/2/1
f 118/2/1 106/2/1 105/2/1
f 118/2/1 104/2/1 103/2/1
f 119/2/1 106/2/1 118/2/1
f 122/4/1 121/4/1 120/4/1
f 123/4/1 121/4/1 122/4/1
f 126/4/1 125/4/1 124/4/1
f 127/4/1 125/4/1 126/4/1
f 128/2/2 129/2/2 131/2/2
f 131/2/2 129/2/2 132/2/2
f 130/2/2 131/2/2 138/2/2
f 138/2/2 131/2/2 139/2/2
f 132/2/2 133/2/2 140/2/2
f 133/1/2 134/1/2 141/1/2
f 140/2/2 133/2/2 141/2/2
f 141/1/2 134/1/2 142/1/2
f 135/1/2 136/1/2 154/1/2
f 136/4/2 137/4/2 155/4/2
f 154/1/2 136/1/2 155/1/2
f 139/1/2 140/1/2 156/1/2
f 155/4/2 137/4/2 156/4/2
f 138/1/2 139/1/2 156/1/2
f 137/1/2 138/1/2 156/1/2
f 140/1/2 141/1/2 156/1/2
f 156/1/2 141/1/2 157/1/2
f 143/1/2 144/1/2 158/1/2
f 158/1/2 144/1/2 159/1/2
f 145/2/2 146/2/2 160/2/2
f 160/2/2 146/2/2 161/2/2
f 146/3/2 147/3/2 162/3/2
f 161/2/2 146/2/2 162/2/2
f 147/2/2 148/2/2 163/2/2
f 162/3/2 147/3/2 163/3/2
f 148/3/2 149/3/2 164/3/2
f 163/2/2 148/2/2 164/2/2
f 149/2/2 150/2/2 165/2/2
f 164/3/2 149/3/2 165/3/2
f 150/3/2 151/3/2 166/3/2
f 165/2/2 150/2/2 166/2/2
f 151/2/2 152/2/2 167/2/2
f 166/3/2 151/3/2 167/3/2
f 152/3/2 153/3/2 168/3/2
f 167/2/2 152/2/2 168/2/2
f 153/2/2 154/2/2 169/2/2
f 168/3/2 153/3/2 169/3/2
f 169/2/2 154/2/2 170/2/2
f 171/2/2 172/2/2 186/2/2
f 186/2/2 172/2/2 187/2/2
f 173/2/2 174/2/2 188/2/2
f 174/2/2 175/2/2 188/2/2
f 175/3/2 176/3/2 189/3/2
f 188/2/2 175/2/2 189/2/2
f 176/2/2 177/2/2 190/2/2
f 189/3/2 176/3/2 190/3/2
f 177/3/2 178/3/2 191/3/2
f 190/2/2 177/2/2 191/2/2
f 178/2/2 179/2/2 192/2/2
f 191/3/2 178/3/2 192/3/2
f 179/3/2 180/3/2 193/3/2
f 192/2/2 179/2/2 193/2/2
f 180/2/2 181/2/2 194/2/2
f 193/3/2 180/3/2 194/3/2
f 181/3/2 182/3/2 195/3/2
f 194/2/2 181/2/2 195/2/2
f 184/2/2 185/2/2 196/2/2
f 195/3/2 182/3/2 196/3/2
f 185/2/2 186/2/2 196/2/2
f 182/2/2 183/2/2 196/2/2
f 183/2/2 184/2/2 196/2/2
f 196/2/2 186/2/2 197/2/2
f 198/1/2 199/1/2 201/1/2
f 200/1/2 201/1/2 203/1/2
f 202/1/2 203/1/2 205/1/2
f 203/1/2 201/1/2 206/1/2
f 205/1/2 203/1/2 206/1/2
f 201/1/2 199/1/2 207/1/2
f 206/1/2 201/1/2 207/1/2
f 205/1/2 206/1/2 209/1/2
f 204/1/2 205/1/2 209/1/2
f 209/1/2 206/1/2 210/1/2
f 210/1/2 206/1/2 211/1/2
f 207/1/2 199/1/2 212/1/2
f 212/1/2 199/1/2 213/1/2
f 208/1/2 209/1/2 224/1/2
f 209/1/2 210/1/2 224/1/2
f 224/1/2 210/1/2 225/1/2
f 225/1/2 210/1/2 226/1/2
f 226/1/2 210/1/2 227/1/2
f 227/1/2 210/1/2 228/1/2
f 228/1/2 210/1/2 229/1/2
f 214/2/2 215/2/2 230/2/2
f 215/3/2 216/3/2 231/3/2
f 230/2/2 215/2/2 231/2/2
f 216/2/2 217/2/2 232/2/2
f 231/3/2 216/3/2 232/3/2
f 217/3/2 218/3/2 233/3/2
f 232/2/2 217/2/2 233/2/2
f 218/2/2 219/2/2 234/2/2
f 233/3/2 218/3/2 234/3/2
f 219/3/2 220/3/2 235/3/2
f 234/2/2 219/2/2 235/2/2
f 220/2/2 221/2/2 236/2/2
f 235/3/2 220/3/2 236/3/2
f 221/3/2 222/3/2 237/3/2
f 236/2/2 221/2/2 237/2/2
f 222/2/2 223/2/2 238/2/2
f 237/3/2 222/3/2 238/3/2
f 223/3/2 224/3/2 239/3/2
f 238/2/2 223/2/2 239/2/2
f 239/3/2 224/3/2 240/3/2
f 225/2/2 226/2/2 241/2/2
f 226/4/2 227/4/2 242/4/2
f 241/2/2 226/2/2 242/2/2
f 227/2/2 228/2/2 243/2/2
f 242/4/2 227/4/2 243/4/2
f 243/2/2 228/2/2 244/2/2
f 245/4/2 246/4/2 247/4/2
f 247/4/2 246/4/2 248/4/2
f 249/4/2 250/4/2 251/4/2
f 251/4/2 250/4/2 252/4/2
f 253/4/2 254/4/2 255/4/2
f 255/4/2 254/4/2 256/4/2
f 260/2/3 258/2/3 257/2/3
f 261/2/3 258/2/3 260/2/3
f 263/2/3 260/2/3 259/2/3
f 264/3/3 261/3/3 260/3/3
f 264/2/3 260/2/3 263/2/3
f 265/2/3 262/2/3 261/2/3
f 265/3/3 261/3/3 264/3/3
f 266/2/3 262/2/3 265/2/3
f 267/2/3 265/2/3 264/2/3
f 268/2/3 265/2/3 267/2/3
f 272/1/3 270/1/3 269/1/3
f 273/1/3 270/1/3 272/1/3
f 274/1/3 272/1/3 271/1/3
f 275/1/3 272/1/3 274/1/3
f 277/1/3 276/1/3 275/1/3
f 278/1/3 276/1/3 277/1/3
f 280/2/3 279/2/3 278/2/3
f 281/2/3 279/2/3 280/2/3
f 282/5/3 281/5/3 280/5/3
f 284/5/3 282/5/3 280/5/3
f 285/4/3 283/4/3 282/4/3
f 285/5/3 282/5/3 284/5/3
f 286/4/3 283/4/3 285/4/3
f 288/4/3 285/4/3 284/4/3
f 288/4/3 287/4/3 286/4/3
f 288/4/3 286/4/3 285/4/3
f 289/4/3 287/4/3 288/4/3
f 290/4/3 287/4/3 289/4/3
f 291/4/3 287/4/3 290/4/3
f 292/4/3 290/4/3 289/4/3
f 293/4/3 290/4/3 292/4/3
f 296/2/3 295/2/3 294/2/3
f 297/2/3 295/2/3 296/2/3
f 300/2/3 299/2/3 298/2/3
f 301/2/3 299/2/3 300/2/3
f 304/2/3 303/2/3 302/2/3
f 305/2/3 303/2/3 304/2/3
f 308/2/3 307/2/3 306/2/3
f 309/2/3 307/2/3 308/2/3
f 312/1/3 311/1/3 310/1/3
f 313/1/3 311/1/3 312/1/3
f 316/1/3 315/1/3 314/1/3
f 317/1/3 315/1/3 316/1/3
f 320/1/3 319/1/3 318/1/3
f 321/1/3 319/1/3 320/1/3
f 324/1/3 323/1/3 322/1/3
f 325/1/3 323/1/3 324/1/3
f 328/1/3 327/1/3 326/1/3
f 329/1/3 327/1/3 328/1/3
f 332/1/3 331/1/3 330/1/3
f 333/1/3 331/1/3 332/1/3
f 336/1/3 335/1/3 334/1/3
f 337/1/3 335/1/3 336/1/3
f 340/1/3 339/1/3 338/1/3
f 341/1/3 339/1/3 340/1/3
f 342/2/4 343/2/4 344/2/4
f 344/2/4 343/2/4 345/2/4
f 346/2/4 347/2/4 348/2/4
f 348/2/4 347/2/4 349/2/4
f 348/5/4 349/5/4 350/5/4
f 348/5/4 350/5/4 352/5/4
f 350/4/4 351/4/4 353/4/4
f 352/5/4 350/5/4 353/5/4
f 353/4/4 351/4/4 354/4/4
f 352/4/4 353/4/4 356/4/4
f 354/4/4 355/4/4 356/4/4
f 353/4/4 354/4/4 356/4/4
f 356/4/4 355/4/4 357/4/4
f 357/4/4 355/4/4 358/4/4
f 358/4/4 355/4/4 359/4/4
f 357/4/4 358/4/4 360/4/4
f 360/4/4 358/4/4 361/4/4
f 362/2/4 363/2/4 364/2/4
f 364/2/4 363/2/4 365/2/4
f 366/2/4 367/2/4 370/2/4
f 370/2/4 367/2/4 371/2/4
f 368/2/4 369/2/4 373/2/4
f 373/2/4 369/2/4 374/2/4
f 371/2/4 372/2/4 376/2/4
f 376/2/4 372/2/4 377/2/4
f 375/2/4 376/2/4 378/2/4
f 378/2/4 376/2/4 379/2/4
f 380/1/4 381/1/4 382/1/4
f 380/1/4 382/1/4 384/1/4
f 382/2/4 383/2/4 384/2/4
f 384/2/4 383/2/4 385/2/4
f 380/1/4 384/1/4 386/1/4
f 386/1/4 384/1/4 387/1/4
f 388/1/4 389/1/4 390/1/4
f 390/1/4 389/1/4 391/1/4
f 392/1/4 393/1/4 394/1/4
f 394/1/4 393/1/4 395/1/4
f 396/1/4 397/1/4 398/1/4
f 398/1/4 397/1/4 399/1/4
f 402/1/5 401/1/5 400/1/5
f 403/1/5 401/1/5 402/1/5
f 406/2/5 405/2/5 404/2/5
f 407/2/5 405/2/5 406/2/5
f 410/1/5 409/1/5 408/1/5
f 411/1/5 409/1/5 410/1/5
f 414/2/5 413/2/5 412/2/5
f 415/2/5 413/2/5 414/2/5
f 418/2/5 417/2/5 416/2/5
f 419/2/5 417/2/5 418/2/5
f 421/1/5 419/1/5 418/1/5
f 422/1/5 419/1/5 421/1/5
f 424/1/5 422/1/5 421/1/5
f 424/1/5 423/1/5 422/1/5
f 424/1/5 421/1/5 420/1/5
f 425/1/5 423/1/5 424/1/5
f 428/1/5 427/1/5 426/1/5
f 429/1/5 427/1/5 428/1/5
f 430/4/5 429/4/5 428/4/5
f 431/4/5 429/4/5 430/4/5
f 432/1/5 431/1/5 430/1/5
f 433/1/5 431/1/5 432/1/5
f 436/1/5 435/1/5 434/1/5
f 437/1/5 435/1/5 436/1/5
f 442/1/5 439/1/5 438/1/5
f 443/1/5 439/1/5 442/1/5
f 444/1/5 441/1/5 440/1/5
f 445/1/5 441/1/5 444/1/5
f 448/2/5 447/2/5 446/2/5
f 449/2/5 447/2/5 448/2/5
f 450/3/5 449/3/5 448/3/5
f 451/3/5 449/3/5 450/3/5
f 452/2/5 451/2/5 450/2/5
f 453/2/5 451/2/5 452/2/5
f 454/3/5 453/3/5 452/3/5
f 455/3/5 453/3/5 454/3/5
f 456/2/5 455/2/5 454/2/5
f 457/2/5 455/2/5 456/2/5
f 458/3/5 457/3/5 456/3/5
f 459/3/5 457/3/5 458/3/5
f 460/2/5 459/2/5 458/2/5
f 461/2/5 459/2/5 460/2/5
f 462/3/5 461/3/5 460/3/5
f 463/3/5 461/3/5 462/3/5
f 465/2/5 463/2/5 462/2/5
f 466/2/5 463/2/5 465/2/5
f 468/1/5 465/1/5 464/1/5
f 469/1/5 467/1/5 466/1/5
f 470/1/5 468/1/5 464/1/5
f 471/1/5 467/1/5 469/1/5
f 472/1/5 470/1/5 464/1/5
f 473/1/5 470/1/5 472/1/5
f 474/1/5 467/1/5 471/1/5
f 475/1/5 467/1/5 474/1/5
f 480/2/5 477/2/5 476/2/5
f 481/2/5 477/2/5 480/2/5
f 482/2/5 479/2/5 478/2/5
f 483/2/5 479/2/5 482/2/5
f 484/3/5 481/3/5 480/3/5
f 485/3/5 481/3/5 484/3/5
f 486/3/5 483/3/5 482/3/5
f 487/3/5 483/3/5 486/3/5
f 488/2/5 485/2/5 484/2/5
f 489/2/5 485/2/5 488/2/5
f 490/2/5 487/2/5 486/2/5
f 491/2/5 487/2/5 490/2/5
f 492/3/5 489/3/5 488/3/5
f 493/3/5 489/3/5 492/3/5
f 494/3/5 491/3/5 490/3/5
f 495/3/5 491/3/5 494/3/5
f 496/2/5 493/2/5 492/2/5
f 497/2/5 493/2/5 496/2/5
f 498/2/5 495/2/5 494/2/5
f 499/2/5 495/2/5 498/2/5
f 500/3/5 497/3/5 496/3/5
f 501/3/5 497/3/5 500/3/5
f 502/3/5 499/3/5 498/3/5
f 503/3/5 499/3/5 502/3/5
f 504/2/5 501/2/5 500/2/5
f 505/2/5 501/2/5 504/2/5
f 506/2/5 503/2/5 502/2/5
f 507/2/5 503/2/5 506/2/5
f 508/3/5 505/3/5 504/3/5
f 509/3/5 505/3/5 508/3/5
f 510/3/5 507/3/5 506/3/5
f 511/3/5 507/3/5 510/3/5
f 512/2/5 509/2/5 508/2/5
f 513/2/5 511/2/5 510/2/5
f 514/2/5 511/2/5 513/2/5
f 515/2/5 512/2/5 508/2/5
f 516/2/5 512/2/5 515/2/5
f 517/3/5 514/3/5 513/3/5
f 518/3/5 514/3/5 517/3/5
f 522/2/5 519/2/5 518/2/5
f 523/5/5 520/5/5 519/5/5
f 523/2/5 519/2/5 522/2/5
f 524/4/5 521/4/5 520/4/5
f 524/5/5 520/5/5 523/5/5
f 525/4/5 521/4/5 524/4/5
f 528/4/5 527/4/5 526/4/5
f 529/4/5 527/4/5 528/4/5
f 530/2/6 531/2/6 532/2/6
f 532/2/6 531/2/6 533/2/6
f 534/1/6 535/1/6 538/1/6
f 538/1/6 535/1/6 539/1/6
f 536/1/6 537/1/6 540/1/6
f 540/1/6 537/1/6 541/1/6
f 542/1/6 543/1/6 544/1/6
f 544/1/6 543/1/6 545/1/6
f 545/1/6 543/1/6 546/1/6
f 546/1/6 543/1/6 547/1/6
f 545/1/6 546/1/6 549/1/6
f 549/1/6 546/1/6 550/1/6
f 548/1/6 549/1/6 552/1/6
f 550/1/6 551/1/6 552/1/6
f 549/1/6 550/1/6 552/1/6
f 552/1/6 551/1/6 553/1/6
f 554/1/6 555/1/6 558/1/6
f 558/1/6 555/1/6 559/1/6
f 556/1/6 557/1/6 560/1/6
f 560/1/6 557/1/6 561/1/6
f 562/2/6 563/2/6 566/2/6
f 566/2/6 563/2/6 567/2/6
f 564/2/6 565/2/6 568/2/6
f 568/2/6 565/2/6 569/2/6
f 566/3/6 567/3/6 570/3/6
f 570/3/6 567/3/6 571/3/6
f 568/3/6 569/3/6 572/3/6
f 572/3/6 569/3/6 573/3/6
f 570/2/6 571/2/6 574/2/6
f 574/2/6 571/2/6 575/2/6
f 572/2/6 573/2/6 576/2/6
f 576/2/6 573/2/6 577/2/6
f 574/3/6 575/3/6 578/3/6
f 578/3/6 575/3/6 579/3/6
f 576/3/6 577/3/6 580/3/6
f 580/3/6 577/3/6 581/3/6
f 578/2/6 579/2/6 582/2/6
f 582/2/6 579/2/6 583/2/6
f 580/2/6 581/2/6 584/2/6
f 584/2/6 581/2/6 585/2/6
f 582/3/6 583/3/6 586/3/6
f 586/3/6 583/3/6 587/3/6
f 584/3/6 585/3/6 588/3/6
f 588/3/6 585/3/6 589/3/6
f 586/2/6 587/2/6 590/2/6
f 590/2/6 587/2/6 591/2/6
f 588/2/6 589/2/6 592/2/6
f 592/2/6 589/2/6 593/2/6
f 590/3/6 591/3/6 594/3/6
f 594/3/6 591/3/6 595/3/6
f 592/3/6 593/3/6 596/3/6
f 596/3/6 593/3/6 597/3/6
f 594/2/6 595/2/6 598/2/6
f 596/2/6 597/2/6 599/2/6
f 599/2/6 597/2/6 600/2/6
f 599/3/6 600/3/6 601/3/6
f 601/3/6 600/3/6 602/3/6
f 594/2/6 598/2/6 605/2/6
f 605/2/6 598/2/6 606/2/6
f 601/2/6 602/2/6 609/2/6
f 602/2/6 603/2/6 609/2/6
f 603/5/6 604/5/6 610/5/6
f 609/2/6 603/2/6 610/2/6
f 610/5/6 604/5/6 611/5/6
f 607/2/6 608/2/6 612/2/6
f 612/2/6 608/2/6 613/2/6
f 612/3/6 613/3/6 614/3/6
f 614/3/6 613/3/6 615/3/6
f 601/2/6 609/2/6 616/2/6
f 616/2/6 609/2/6 617/2/6
f 616/4/6 617/4/6 618/4/6
f 618/4/6 617/4/6 619/4/6
f 614/2/6 615/2/6 620/2/6
f 620/2/6 615/2/6 621/2/6
f 618/2/6 619/2/6 622/2/6
f 622/2/6 619/2/6 623/2/6
f 621/2/6 622/2/6 624/2/6
f 624/2/6 622/2/6 625/2/6
f 626/2/6 627/2/6 628/2/6
f 628/2/6 627/2/6 629/2/6
f 628/3/6 629/3/6 630/3/6
f 630/3/6 629/3/6 631/3/6
f 630/2/6 631/2/6 632/2/6
f 632/2/6 631/2/6 633/2/6
f 632/3/6 633/3/6 634/3/6
f 634/3/6 633/3/6 635/3/6
f 634/2/6 635/2/6 636/2/6
f 636/2/6 635/2/6 637/2/6
f 636/3/6 637/3/6 638/3/6
f 638/3/6 637/3/6 639/3/6
f 638/2/6 639/2/6 640/2/6
f 640/2/6 639/2/6 641/2/6
f 640/3/6 641/3/6 642/3/6
f 642/3/6 641/3/6 643/3/6
f 642/2/6 643/2/6 645/2/6
f 644/2/6 645/2/6 646/2/6
f 645/2/6 643/2/6 647/2/6
f 646/2/6 645/2/6 647/2/6
f 647/2/6 643/2/6 648/2/6
f 648/2/6 643/2/6 649/2/6
f 650/4/6 651/4/6 654/4/6
f 654/4/6 651/4/6 655/4/6
f 652/4/6 653/4/6 656/4/6
f 656/4/6 653/4/6 657/4/6
f 658/4/6 659/4/6 660/4/6
f 660/4/6 659/4/6 661/4/6
